# xmcd
#
# Track frame offsets:
#	150
#	14148
#	26038
#	39742
#	62143
#	78500
#	90649
#	108829
#	124974
#	140523
#	162619
#	187050
#
# Disc length: 2766 seconds
#
# Revision: 1
# Processed by: cddbd v1.5.2PL0 Copyright (c) Steve Scherf et al.
# Submitted via: audiograbber 1.83.01
#
DISCID=ae0acc0c
DTITLE=Linda Evans - Sweet Memories
DYEAR=2016
DGENRE=Country
TTITLE0=Let Me Be There
TTITLE1=Apartment #9
TTITLE2=Leaving and Saying Goodbye
TTITLE3=Don't You Ever Get Tired of Hurting Me
TTITLE4=I'd Rather Be Sorry
TTITLE5=Once a Day
TTITLE6=I'm Still Not Over You
TTITLE7=Together Again
TTITLE8=Someone Had to Teach You
TTITLE9=If You're Gonna Do Me Wrong, Do It Right
TTITLE10=Sweet Memories
TTITLE11=I'd Rather Have Jesus
EXTD=
EXTT0=
EXTT1=
EXTT2=
EXTT3=
EXTT4=
EXTT5=
EXTT6=
EXTT7=
EXTT8=
EXTT9=
EXTT10=
EXTT11=
PLAYORDER=
